<svg width="122" height="122" viewBox="0 0 122 122" fill="none" xmlns="http://www.w3.org/2000/svg">
<path d="M92.7275 22.8245C106.034 34.9942 119.084 48.4405 121.557 64.2696C124.031 80.0987 115.928 98.4809 102.622 109.374C89.401 120.267 70.9774 123.756 55.2832 121.203C39.589 118.565 26.4536 109.714 16.4741 98.8213C6.49463 87.9281 -0.328939 74.8223 0.0122396 62.142C0.268124 49.3766 7.77405 36.8665 17.7535 24.6968C27.6477 12.442 40.186 0.442522 53.0655 0.0170085C66.0303 -0.493608 79.5069 10.5697 92.7275 22.8245Z" fill="#616A81"/>
<rect x="33" y="47" width="50" height="50" rx="5" fill="#DCD3FF"/>
<rect x="45" y="32" width="50" height="50" rx="5" fill="#00CBA9"/>
</svg>
